HIERARCHY
ROOT Hips
{
	OFFSET 0.000000 88.474243 0.000000
	CHANNELS 6 Xposition Yposition Zposition Zrotation Yrotation Xrotation 
	JOINT Hips_Spine
	{
		OFFSET 0.000000 0.000000 0.000000
		CHANNELS 3 Zrotation Yrotation Xrotation
		JOINT Spine
		{
			OFFSET 0.005100 8.711998 -0.691000
			CHANNELS 3 Zrotation Yrotation Xrotation
			JOINT Spine1
			{
				OFFSET -0.009200 8.660301 -1.275000
				CHANNELS 3 Zrotation Yrotation Xrotation
				JOINT Spine2
				{
					OFFSET 0.006300 9.852501 -1.857000
					CHANNELS 3 Zrotation Yrotation Xrotation
					JOINT Spine2_Neck
					{
						OFFSET 0.000000 0.000000 0.000000
						CHANNELS 3 Zrotation Yrotation Xrotation
						JOINT Neck
						{
							OFFSET 0.016300 11.420799 -0.263300
							CHANNELS 3 Zrotation Yrotation Xrotation
							End Site #name: Head
							{
								OFFSET -0.019200 9.262405 2.362500
							}
						}
					}
					JOINT Spine2_LeftShoulder
					{
						OFFSET 0.000000 0.000000 0.000000
						CHANNELS 3 Zrotation Yrotation Xrotation
						JOINT LeftShoulder
						{
							OFFSET 5.616900 6.732201 -0.345700
							CHANNELS 3 Zrotation Yrotation Xrotation
							JOINT LeftArm
							{
								OFFSET 10.664888 -0.183372 -2.440700
								CHANNELS 3 Zrotation Yrotation Xrotation
								JOINT LeftForeArm
								{
									OFFSET 27.459126 0.000000 0.000000
									CHANNELS 3 Zrotation Yrotation Xrotation
									End Site #name: LeftHand
									{
										OFFSET 21.306858 0.000000 0.000000
									}
								}
							}
						}
					}
					JOINT Spine2_RightShoulder
					{
						OFFSET 0.000000 0.000000 0.000000
						CHANNELS 3 Zrotation Yrotation Xrotation
						JOINT RightShoulder
						{
							OFFSET -5.580300 6.737503 -0.344400
							CHANNELS 3 Zrotation Yrotation Xrotation
							JOINT RightArm
							{
								OFFSET -10.679335 -0.188484 -2.383900
								CHANNELS 3 Zrotation Yrotation Xrotation
								JOINT RightForeArm
								{
									OFFSET -27.503529 0.000000 0.000000
									CHANNELS 3 Zrotation Yrotation Xrotation
									End Site #name: RightHand
									{
										OFFSET -21.306808 0.000000 0.000000
									}
								}
							}
						}
					}
				}
			}
		}
	}
	JOINT Hips_LeftUpLeg
	{
		OFFSET 0.000000 0.000000 0.000000
		CHANNELS 3 Zrotation Yrotation Xrotation
		JOINT LeftUpLeg
		{
			OFFSET 6.857700 -6.739601 0.312100
			CHANNELS 3 Zrotation Yrotation Xrotation
			JOINT LeftLeg
			{
				OFFSET -0.367590 -34.731552 -4.572400
				CHANNELS 3 Zrotation Yrotation Xrotation
				End Site #name: LeftFoot
				{
					OFFSET 0.367590 -34.656704 -6.067400
				}
			}
		}
	}
	JOINT Hips_RightUpLeg
	{
		OFFSET 0.000000 0.000000 0.000000
		CHANNELS 3 Zrotation Yrotation Xrotation
		JOINT RightUpLeg
		{
			OFFSET -6.876100 -6.733299 0.301000
			CHANNELS 3 Zrotation Yrotation Xrotation
			JOINT RightLeg
			{
				OFFSET 0.347353 -34.795158 -4.515900
				CHANNELS 3 Zrotation Yrotation Xrotation
				End Site #name: RightFoot
				{
					OFFSET -0.347353 -34.589367 -6.070300
				}
			}
		}
	}
}
MOTION
Frames: 12
Frame Time: 0.041667
0.816040 0.815910 -1.271787 0.702748 9.755043 -7.240495 -0.000000 0.000000 -0.000000 -2.792440 -0.282542 -3.688671 2.132466 -1.858564 -5.918859 0.000000 0.000000 0.000000 2.597950 -1.317153 -5.820458 3.374843 -4.386498 -4.447739 1.139578 -1.625639 -6.522101 -18.931647 -0.325818 9.535326 -53.510601 13.457124 -3.908044 -0.566119 -20.717602 8.532600 1.565608 -1.629142 -3.144787 3.810515 6.058079 1.449518 66.861335 -1.013386 -8.542965 0.353098 47.144309 -0.678102 -0.000000 -0.000000 -0.000000 -9.744741 25.700901 -1.630839 -1.887287 1.378300 18.107996 0.000000 0.000000 0.000000 -5.937388 7.460394 -17.221365 5.299917 -3.160461 14.178992 
0.621252 0.822154 -1.347136 0.289869 10.462995 -7.500772 -0.000000 0.000000 -0.000000 -1.825828 -0.321176 -4.420406 2.320158 -1.873373 -5.830861 0.000000 0.000000 0.000000 2.779971 -1.259092 -5.753257 3.306826 -4.407222 -4.148671 1.336903 -1.567012 -6.373466 -18.417084 -0.370410 9.635388 -54.528092 14.442598 -4.669608 -0.606548 -21.624948 8.359880 1.743698 -1.576274 -3.136002 3.945534 6.196179 1.498725 66.576651 -1.118448 -8.375698 0.358495 47.224273 -0.675106 -0.000000 -0.000000 -0.000000 -9.076106 25.841122 -1.462963 -1.981040 1.151452 18.452153 0.000000 0.000000 0.000000 -5.065891 7.755175 -17.337739 5.382026 -3.636848 14.177458 
0.452142 0.823687 -1.424205 -0.142323 11.549057 -7.803610 -0.000000 0.000000 -0.000000 -0.886688 -0.307312 -5.047071 2.506335 -1.874333 -5.734921 0.000000 0.000000 0.000000 2.949363 -1.197936 -5.677952 3.251775 -4.456046 -3.772994 1.538355 -1.512286 -6.225030 -17.887155 -0.433613 9.696926 -55.528797 15.394989 -5.373463 -0.640884 -22.431875 8.176352 1.918568 -1.522225 -3.122806 4.128447 6.315788 1.540638 66.344938 -1.160260 -8.104310 0.370572 47.171936 -0.671113 -0.000000 -0.000000 -0.000000 -8.448424 25.964068 -1.073501 -2.097216 0.881702 18.574015 0.000000 0.000000 0.000000 -4.217067 8.068495 -17.401515 5.454617 -4.108374 14.149487 
0.315567 0.821518 -1.501215 -0.523529 12.435291 -8.079113 -0.000000 0.000000 -0.000000 -0.006502 -0.283963 -5.600079 2.693412 -1.873485 -5.623765 0.000000 0.000000 0.000000 3.086319 -1.133389 -5.587907 3.188960 -4.505707 -3.358199 1.734527 -1.448933 -6.058502 -17.317459 -0.551046 9.741303 -56.478305 16.182387 -6.084716 -0.677365 -23.133979 7.988388 2.093772 -1.465887 -3.102827 4.344018 6.429354 1.576344 66.153917 -1.173100 -7.794772 0.377323 47.189722 -0.671963 -0.000000 -0.000000 -0.000000 -7.822903 26.103117 -0.501959 -2.255536 0.611731 18.336730 0.000000 -0.000000 0.000000 -3.429318 8.399427 -17.445720 5.660872 -4.330597 14.108558 
0.217792 0.816801 -1.576972 -0.829671 12.570914 -8.233682 -0.000000 -0.000000 -0.000000 0.711972 -0.275609 -6.176044 2.876278 -1.868483 -5.493581 0.000000 0.000000 0.000000 3.216936 -1.064913 -5.490045 3.083839 -4.647856 -2.817337 1.929726 -1.384778 -5.882147 -16.724195 -0.692271 9.771450 -57.198071 16.655208 -6.883568 -0.717136 -23.766348 7.793000 2.266517 -1.410824 -3.076314 4.588761 6.555333 1.613339 65.920332 -1.198080 -7.531711 0.384909 47.317884 -0.672914 -0.000000 -0.000000 -0.000000 -7.233760 26.253077 0.172361 -2.415534 0.299880 17.957975 0.000000 -0.000000 0.000000 -2.712451 8.807093 -17.568157 5.858444 -4.545470 14.114797 
0.166854 0.812251 -1.653709 -1.019515 12.025263 -8.294417 -0.000000 -0.000000 -0.000000 1.320423 -0.267475 -6.682849 3.050319 -1.862074 -5.362522 0.000000 0.000000 0.000000 3.338344 -0.999826 -5.381565 2.956052 -4.817000 -2.180548 2.117632 -1.327080 -5.705516 -16.120025 -0.875506 9.775966 -57.857193 16.998932 -7.550172 -0.758950 -24.338269 7.609087 2.433277 -1.360631 -3.043054 4.886067 6.713699 1.657189 65.642242 -1.357464 -7.417522 0.400327 47.655846 -0.672507 -0.000000 -0.000000 -0.000000 -6.713850 26.317768 0.834712 -2.566163 0.051648 17.582423 0.000000 -0.000000 0.000000 -2.090663 9.327171 -17.721046 6.037039 -4.757158 14.195605 
0.168409 0.809690 -1.732306 -1.076517 10.775148 -8.276371 -0.000000 -0.000000 0.000000 1.896508 -0.268063 -7.004888 3.206437 -1.863122 -5.231509 0.000000 0.000000 0.000000 3.445237 -0.941535 -5.261358 2.777531 -4.980725 -1.448990 2.291816 -1.283139 -5.537196 -15.539604 -1.077437 9.748623 -58.426182 17.221746 -8.097529 -0.799755 -24.808935 7.459237 2.576415 -1.320587 -2.997950 5.181200 6.884865 1.702475 65.336341 -1.534349 -7.347345 0.422380 48.147943 -0.662439 -0.000000 -0.000000 -0.000000 -6.317089 26.305858 1.484728 -2.712266 -0.139118 17.167393 0.000000 -0.000000 0.000000 -1.596381 9.927585 -17.938953 6.206998 -4.933537 14.409307 
0.215301 0.808997 -1.809891 -0.998371 8.772246 -8.195361 -0.000000 -0.000000 0.000000 2.293368 -0.328564 -7.138238 3.336814 -1.874886 -5.094910 0.000000 0.000000 0.000000 3.533575 -0.894131 -5.139244 2.532142 -5.094805 -0.651958 2.443385 -1.248636 -5.373406 -15.020696 -1.288031 9.694494 -58.920466 17.357666 -8.491621 -0.837625 -25.166437 7.318405 2.699142 -1.288444 -2.951578 5.441333 7.051457 1.740574 65.067582 -1.712758 -7.271955 0.449467 48.615772 -0.648348 -0.000000 -0.000000 -0.000000 -6.074487 26.168635 2.092961 -2.854948 -0.231274 16.772528 0.000000 -0.000000 0.000000 -1.223563 10.567747 -18.257184 6.357961 -5.083381 14.780312 
0.312202 0.807627 -1.887434 -0.792635 6.077561 -8.078213 -0.000000 -0.000000 0.000000 2.564662 -0.425532 -7.161077 3.440489 -1.889549 -4.962730 0.000000 0.000000 0.000000 3.604735 -0.855899 -5.005819 2.263467 -5.050159 0.142690 2.572789 -1.226401 -5.223268 -14.638510 -1.463798 9.623553 -59.327491 17.372676 -8.808728 -0.892108 -25.444612 7.212493 2.804646 -1.270418 -2.898834 5.641161 7.190699 1.771140 64.870299 -1.845696 -7.179803 0.478661 49.004794 -0.631749 -0.000000 -0.000000 -0.000000 -5.983151 25.954182 2.675783 -3.012086 -0.291391 16.439543 0.000000 -0.000000 0.000000 -0.972126 11.167767 -18.701277 6.507040 -5.104292 15.381267 
0.456785 0.805321 -1.964379 -0.513117 2.684518 -7.933489 -0.000000 -0.000000 0.000000 2.776258 -0.537057 -7.178404 3.524053 -1.901422 -4.818439 0.000000 0.000000 0.000000 3.661750 -0.828527 -4.853930 2.076071 -4.722834 0.655140 2.684595 -1.212175 -5.079076 -14.406931 -1.613892 9.513671 -59.676484 17.313203 -9.027644 -0.946354 -25.641947 7.149733 2.888330 -1.262130 -2.842932 5.774219 7.299285 1.794829 64.732760 -1.946888 -7.086313 0.509198 49.268398 -0.614854 -0.000000 -0.000000 -0.000000 -5.976036 25.667178 3.219526 -3.264139 -0.432223 16.271541 0.000000 -0.000000 0.000000 -0.821725 11.721392 -19.307409 6.650412 -5.018529 16.267092 
0.646531 0.803664 -2.040256 -0.215586 -1.224824 -7.811198 -0.000000 -0.000000 0.000000 2.980922 -0.711485 -7.184931 3.605282 -1.917299 -4.674436 0.000000 0.000000 0.000000 3.701617 -0.809537 -4.716348 1.960056 -4.259063 1.007800 2.769498 -1.202063 -4.944469 -14.288096 -1.746118 9.385814 -59.899928 17.110468 -9.057746 -1.019423 -25.774643 7.129958 2.954325 -1.262457 -2.788090 5.841924 7.380136 1.811261 64.666971 -2.008529 -6.972519 0.537234 49.453769 -0.597481 -0.000000 -0.000000 -0.000000 -6.064758 25.234703 3.610936 -3.587419 -0.685878 16.567769 0.000000 -0.000000 0.000000 -0.750166 12.260350 -20.047469 6.781759 -4.875544 17.410926 
0.880396 0.804618 -2.114486 0.098188 -5.628866 -7.694276 -0.000000 -0.000000 0.000000 3.174936 -0.915287 -7.245574 3.679126 -1.936014 -4.550230 0.000000 0.000000 0.000000 3.740573 -0.799162 -4.591030 1.983461 -3.736092 1.224309 2.845638 -1.200995 -4.827382 -14.288975 -1.807645 9.269758 -60.050923 16.851322 -8.965132 -1.096987 -25.859304 7.100072 3.014410 -1.273370 -2.740952 5.846991 7.443928 1.827257 64.668939 -2.059998 -6.863875 0.560557 49.568658 -0.583923 -0.000000 -0.000000 -0.000000 -6.256612 24.673235 3.892089 -3.854022 -1.003300 17.185917 0.000000 -0.000000 0.000000 -0.743385 12.783025 -20.862070 6.909138 -4.712087 18.712926 
